<svg width="1280" height="477" viewBox="0 0 1280 477" fill="none" xmlns="http://www.w3.org/2000/svg">
<g clip-path="url(#clip0)">
<rect width="1280" height="477" fill="url(#paint0_linear)"/>
<circle cx="50" cy="52" r="2" fill="white"/>
<circle opacity="0.5" cx="131" cy="39" r="2" fill="white"/>
<circle opacity="0.5" cx="80" cy="76" r="2" fill="white"/>
<circle opacity="0.5" cx="29" cy="136" r="2" fill="white"/>
<circle opacity="0.7" cx="435" cy="37" r="2" fill="white"/>
<circle opacity="0.7" cx="1155" cy="56" r="2" fill="white"/>
<circle opacity="0.8" cx="959" cy="37" r="2" fill="white"/>
<circle opacity="0.4" cx="1202" cy="89" r="2" fill="white"/>
<circle opacity="0.4" cx="1217" cy="72" r="2" fill="white"/>
<circle opacity="0.3" cx="1245" cy="174" r="2" fill="white"/>
<circle opacity="0.3" cx="1157" cy="114" r="2" fill="white"/>
<circle opacity="0.4" cx="1067" cy="52" r="2" fill="white"/>
<circle opacity="0.4" cx="975" cy="48" r="2" fill="white"/>
<circle opacity="0.4" cx="861" cy="44" r="2" fill="white"/>
<circle opacity="0.6" cx="645" cy="27" r="2" fill="white"/>
<circle opacity="0.4" cx="665" cy="37" r="2" fill="white"/>
<circle opacity="0.4" cx="804" cy="23" r="2" fill="white"/>
<circle opacity="0.2" cx="831" cy="64" r="2" fill="white"/>
<circle opacity="0.2" cx="723" cy="37" r="2" fill="white"/>
<circle opacity="0.2" cx="458" cy="23" r="2" fill="white"/>
<circle opacity="0.2" cx="218" cy="54" r="2" fill="white"/>
<circle opacity="0.2" cx="93" cy="180" r="2" fill="white"/>
<circle opacity="0.1" cx="534" cy="45" r="2" fill="white"/>
<circle opacity="0.2" cx="354" cy="43" r="2" fill="white"/>
<circle opacity="0.2" cx="72" cy="9" r="2" fill="white"/>
<circle opacity="0.2" cx="97" cy="78" r="2" fill="white"/>
<circle opacity="0.4" cx="1123" cy="9" r="2" fill="white"/>
<circle opacity="0.4" cx="1260" cy="39" r="2" fill="white"/>
<path d="M102.301 425.14L42.8867 438.534L68.2075 478H152.887L117.616 430.794C114.074 426.053 108.074 423.838 102.301 425.14Z" fill="url(#paint1_linear)"/>
<path d="M42.8167 438.968L42 477.113H67.7258L42.8167 438.968Z" fill="url(#paint2_linear)"/>
<path d="M1259.85 170.93L1281 258L1281 138L1266.04 151.222C1260.48 156.135 1258.1 163.721 1259.85 170.93Z" fill="url(#paint3_linear)"/>
<path d="M441.118 457.99L365 477H472L461.131 464.356C456.201 458.62 448.456 456.157 441.118 457.99Z" fill="url(#paint4_linear)"/>
<path d="M1181.45 457.368L1184.97 400.328L1231.34 425.921C1235.9 428.435 1238.68 433.269 1238.57 438.471L1237.52 488.792L1181.45 457.368Z" fill="#598BFE"/>
<path d="M1184.75 400.328L1084.68 457.475C1079.56 460.397 1075.99 465.426 1074.93 471.22L1073.49 478.999L1141.6 478.999L1181.72 456.995L1184.75 400.328Z" fill="url(#paint5_linear)"/>
<path d="M1181.46 456.978L1141.15 478.999L1220.84 478.999L1181.46 456.978Z" fill="url(#paint6_linear)"/>
<path d="M17.6552 285.356L0 225V315L10.636 306.837C17.1846 301.812 19.9728 293.279 17.6552 285.356Z" fill="url(#paint7_linear)"/>
</g>
<defs>
<linearGradient id="paint0_linear" x1="640" y1="0" x2="640" y2="477" gradientUnits="userSpaceOnUse">
<stop stop-color="#0F0B0E"/>
<stop offset="0.868484" stop-color="#35225E"/>
<stop offset="1" stop-color="#4A2F85"/>
</linearGradient>
<linearGradient id="paint1_linear" x1="97.8867" y1="431.427" x2="144.016" y2="516.145" gradientUnits="userSpaceOnUse">
<stop stop-color="#FECD36"/>
<stop offset="1" stop-color="#FECD36" stop-opacity="0"/>
</linearGradient>
<linearGradient id="paint2_linear" x1="54.8629" y1="438.968" x2="55.3065" y2="489.089" gradientUnits="userSpaceOnUse">
<stop stop-color="#FE9B0B"/>
<stop offset="1" stop-color="#FE9B0B" stop-opacity="0"/>
</linearGradient>
<linearGradient id="paint3_linear" x1="1261.8" y1="168.476" x2="1288.31" y2="236.239" gradientUnits="userSpaceOnUse">
<stop stop-color="#5BB142"/>
<stop offset="1" stop-color="#5BB142" stop-opacity="0"/>
</linearGradient>
<linearGradient id="paint4_linear" x1="418.5" y1="455" x2="418.5" y2="496.8" gradientUnits="userSpaceOnUse">
<stop stop-color="#906AEC"/>
<stop offset="1" stop-color="#906AEC" stop-opacity="0"/>
</linearGradient>
<linearGradient id="paint5_linear" x1="1183.65" y1="419.97" x2="1088.92" y2="487.289" gradientUnits="userSpaceOnUse">
<stop stop-color="#77A0FF"/>
<stop offset="1" stop-color="#77A0FF" stop-opacity="0"/>
</linearGradient>
<linearGradient id="paint6_linear" x1="1184.13" y1="460.361" x2="1171.69" y2="495.853" gradientUnits="userSpaceOnUse">
<stop stop-color="#4980FE"/>
<stop offset="1" stop-color="#4980FE" stop-opacity="0"/>
</linearGradient>
<linearGradient id="paint7_linear" x1="11" y1="309" x2="-43.5" y2="202.5" gradientUnits="userSpaceOnUse">
<stop stop-color="#EEE4E0"/>
<stop offset="1" stop-color="#EEE4E0" stop-opacity="0"/>
</linearGradient>
<clipPath id="clip0">
<rect width="1280" height="477" fill="white"/>
</clipPath>
</defs>
</svg>
